<?xml version="1.0" encoding="UTF-8"?>
<svg xmlns="http://www.w3.org/2000/svg" viewBox="0 0 128 128" role="img">
  <rect width="128" height="128" rx="28" fill="#1e3a8a"/>
  <circle cx="64" cy="64" r="52" fill="#172554" opacity=".35"/>
  
    <ellipse cx="64" cy="78" rx="36" ry="28" fill="#7dd3fc"/>
    <circle cx="64" cy="48" r="22" fill="#7dd3fc"/>
    <ellipse cx="88" cy="50" rx="10" ry="6" fill="#e0f2fe"/>
    <circle cx="58" cy="44" r="4" fill="#172554"/>
    <circle cx="72" cy="44" r="4" fill="#172554"/>
    <circle cx="59.2" cy="43" r="1.4" fill="#fff"/>
    <circle cx="73.2" cy="43" r="1.4" fill="#fff"/>
    <path d="M64 52 l16 4 -16 4 z" fill="#f59e0b"/>
    <ellipse cx="48" cy="96" rx="8" ry="4" fill="#e0f2fe" opacity=".7"/>
    <ellipse cx="80" cy="96" rx="8" ry="4" fill="#e0f2fe" opacity=".7"/>
  
  <path d="M30 38 Q64 12 98 38 L92 44 Q64 24 36 44 Z" fill="#e0f2fe"/>
      <rect x="56" y="18" width="16" height="8" rx="2" fill="#7dd3fc"/>
</svg>
