<?xml version="1.0" encoding="UTF-8"?>
<svg xmlns="http://www.w3.org/2000/svg" viewBox="0 0 128 128" role="img">
  <rect width="128" height="128" rx="28" fill="#9a3412"/>
  <circle cx="64" cy="64" r="52" fill="#431407" opacity=".35"/>
  
    <ellipse cx="64" cy="84" rx="32" ry="24" fill="#fdba74"/>
    <circle cx="64" cy="56" r="24" fill="#fdba74"/>
    <path d="M40 48 L34 22 L54 40 Z" fill="#fdba74"/>
    <path d="M88 48 L94 22 L74 40 Z" fill="#fdba74"/>
    <path d="M42 46 L38 28 L52 40 Z" fill="#ffedd5"/>
    <path d="M86 46 L90 28 L76 40 Z" fill="#ffedd5"/>
    <circle cx="54" cy="56" r="4.2" fill="#431407"/>
    <circle cx="74" cy="56" r="4.2" fill="#431407"/>
    <circle cx="55.4" cy="54.8" r="1.3" fill="#fff"/>
    <circle cx="75.4" cy="54.8" r="1.3" fill="#fff"/>
    <ellipse cx="64" cy="66" rx="5" ry="3.5" fill="#431407"/>
    <path d="M64 69 Q56 76 50 74" stroke="#431407" stroke-width="2" fill="none" stroke-linecap="round"/>
    <path d="M64 69 Q72 76 78 74" stroke="#431407" stroke-width="2" fill="none" stroke-linecap="round"/>
  
  <path d="M24 56 Q20 40 36 38 Q64 28 92 38 Q108 40 104 56" fill="none" stroke="#ffedd5" stroke-width="6" stroke-linecap="round"/>
      <circle cx="24" cy="62" r="8" fill="#ffedd5"/>
      <circle cx="104" cy="62" r="8" fill="#ffedd5"/>
</svg>
